<?xml version="1.0" standalone="no"?>
<!DOCTYPE svg PUBLIC "-//W3C//DTD SVG 20010904//EN"
 "http://www.w3.org/TR/2001/REC-SVG-20010904/DTD/svg10.dtd">
<svg version="1.0" xmlns="http://www.w3.org/2000/svg"
 width="1024.000000pt" height="1024.000000pt" viewBox="0 0 1024.000000 1024.000000"
 preserveAspectRatio="xMidYMid meet">

<g transform="translate(0.000000,1024.000000) scale(0.100000,-0.100000)"
fill="#000000" stroke="none">
<path d="M4825 8239 c-472 -25 -876 -134 -1275 -346 -480 -255 -846 -606
-1147 -1101 -216 -355 -344 -705 -408 -1116 -89 -573 -36 -1067 169 -1572 108
-268 176 -391 349 -642 49 -70 110 -159 135 -199 45 -69 48 -72 87 -72 40 -1
186 15 236 25 l27 5 -47 47 c-187 188 -359 436 -491 706 -139 285 -204 484
-257 784 -24 142 -27 181 -27 397 0 251 8 344 49 562 99 521 339 1001 705
1409 277 309 620 545 1020 703 591 233 1403 240 2000 15 395 -148 680 -334
996 -649 161 -160 338 -393 417 -551 l36 -71 51 -6 c28 -3 64 -15 80 -27 29
-21 29 -21 52 -1 13 11 34 28 47 38 l23 19 -26 52 c-78 155 -229 387 -345 531
-287 359 -728 676 -1197 862 -181 72 -430 137 -659 173 -85 13 -419 39 -450
34 -5 0 -73 -4 -150 -9z"/>
<path d="M4765 7893 c-19 -4 -20 -9 -13 -131 3 -70 6 -299 7 -509 l1 -383 220
0 220 0 0 508 0 509 -97 6 c-103 7 -304 7 -338 0z"/>
<path d="M5355 7760 c3 -5 14 -10 23 -10 15 0 15 2 2 10 -20 13 -33 13 -25 0z"/>
<path d="M5718 7716 c110 -73 105 -71 92 -49 -7 11 -25 25 -40 31 -15 7 -39
23 -53 36 -14 13 -38 27 -53 30 -17 5 3 -13 54 -48z"/>
<path d="M5410 7730 c0 -5 5 -10 11 -10 5 0 7 5 4 10 -3 6 -8 10 -11 10 -2 0
-4 -4 -4 -10z"/>
<path d="M5888 7683 c7 -3 16 -2 19 1 4 3 -2 6 -13 5 -11 0 -14 -3 -6 -6z"/>
<path d="M5957 7656 c16 -14 42 -28 57 -32 21 -5 25 -9 14 -16 -10 -7 -8 -8 5
-4 21 7 97 -29 97 -45 0 -6 9 -8 19 -4 11 3 23 0 27 -6 4 -7 3 -9 -3 -6 -5 3
-10 0 -10 -8 0 -8 3 -14 6 -13 35 3 45 -36 12 -47 -13 -4 -17 -12 -14 -25 4
-17 1 -19 -26 -15 -17 2 -29 0 -26 -5 3 -5 11 -7 18 -4 9 3 13 -6 13 -30 l0
-35 -18 30 c-10 16 -21 29 -24 29 -4 0 -1 -7 6 -15 7 -8 8 -15 3 -15 -16 0
-32 22 -26 39 4 12 3 13 -5 2 -7 -9 -11 -10 -17 -2 -4 7 -1 20 7 29 12 16 11
16 -6 2 -18 -14 -19 -13 -13 4 10 27 -10 48 -34 36 -15 -8 -17 -7 -13 5 4 10
0 15 -12 15 -11 0 -34 16 -53 35 -19 19 -37 35 -41 35 -4 0 36 -44 89 -97 112
-113 191 -199 241 -262 19 -24 50 -62 69 -85 19 -22 50 -65 69 -93 19 -29 39
-50 45 -46 6 3 7 1 3 -5 -4 -7 11 -43 33 -81 l41 -69 82 25 c46 14 126 41 178
60 52 20 110 40 128 47 17 6 32 15 32 19 0 17 -185 195 -280 269 -187 147
-461 315 -595 363 -27 10 -59 25 -70 32 -33 22 -38 14 -8 -11z m87 -186 c-8
-8 -15 -6 -25 6 -9 12 -10 15 -1 10 7 -4 12 -2 12 5 0 10 3 10 12 1 8 -8 9
-15 2 -22z m119 -65 c-3 -9 -8 -14 -10 -11 -3 3 -2 9 2 15 9 16 15 13 8 -4z
m11 -60 c-4 -11 -2 -13 9 -9 20 7 33 -14 18 -29 -9 -9 -11 -8 -6 6 4 10 2 17
-4 17 -6 0 -11 -5 -11 -12 0 -6 -6 -3 -14 8 -11 14 -11 21 -3 26 16 11 17 10
11 -7z"/>
<path d="M5847 7629 c7 -7 15 -10 18 -7 3 3 -2 9 -12 12 -14 6 -15 5 -6 -5z"/>
<path d="M5600 7606 c0 -2 8 -10 18 -17 15 -13 16 -12 3 4 -13 16 -21 21 -21
13z"/>
<path d="M5640 7559 c0 -5 5 -7 10 -4 6 3 10 8 10 11 0 2 -4 4 -10 4 -5 0 -10
-5 -10 -11z"/>
<path d="M5748 7480 c13 -10 23 -21 22 -24 0 -4 2 -6 5 -6 26 0 26 4 0 25 -16
14 -34 25 -40 25 -5 -1 0 -9 13 -20z"/>
<path d="M5810 7435 c0 -3 8 -20 17 -38 9 -18 16 -36 15 -40 -1 -5 2 -6 8 -2
8 5 7 12 -2 23 -12 15 -11 16 4 3 10 -7 15 -17 12 -22 -3 -5 6 -13 20 -19 14
-5 26 -12 26 -16 0 -3 -7 -3 -16 0 -8 3 -13 2 -10 -3 3 -5 15 -11 26 -14 13
-3 18 -1 13 5 -3 7 -1 8 6 4 6 -4 8 -13 4 -19 -10 -16 -11 -67 -1 -61 4 3 8 0
8 -5 0 -6 6 -11 14 -11 8 0 17 -4 20 -8 2 -4 -4 -8 -15 -8 -10 0 -19 4 -19 8
0 4 -5 8 -11 8 -5 0 -7 -4 -4 -10 4 -6 -5 -10 -19 -10 -24 0 -26 -4 -26 -40 0
-22 -4 -40 -10 -40 -5 0 -10 -18 -10 -40 0 -22 4 -40 10 -40 5 0 13 -15 18
-32 l10 -33 15 35 c13 27 16 30 17 14 0 -17 8 -23 35 -28 29 -6 35 -11 35 -31
0 -23 -4 -25 -42 -26 -33 0 -38 -2 -23 -9 16 -7 12 -9 -20 -10 -37 -1 -39 -2
-21 -15 18 -13 -9 -15 -240 -17 l-259 -2 335 -6 c324 -5 337 -6 387 -29 39
-17 63 -22 95 -18 67 8 108 19 108 29 0 16 -178 245 -253 325 -119 128 -257
261 -257 248z m154 -173 c-12 -3 -7 -9 16 -23 38 -23 36 -34 -3 -16 -15 6 -31
24 -36 38 -9 25 -8 26 15 15 18 -8 20 -12 8 -14z m59 -71 c-3 -10 0 -22 6 -25
6 -4 11 -12 11 -18 0 -6 -6 -6 -15 2 -22 18 -29 6 -8 -15 16 -17 16 -17 -3
-11 -18 5 -20 3 -16 -24 2 -17 -2 -35 -10 -44 -18 -17 -68 -10 -68 10 0 16 16
19 25 4 10 -17 32 -11 38 9 6 23 -3 38 -23 43 -21 4 -44 38 -34 47 5 5 24 13
42 19 28 9 32 9 33 -6 0 -12 3 -11 9 6 11 27 20 29 13 3z m110 -126 c4 -8 1
-17 -6 -21 -7 -4 -9 -4 -5 1 4 4 3 14 -3 22 -7 8 -8 13 -1 13 5 0 12 -7 15
-15z m-146 -141 c-3 -3 -12 -4 -19 -1 -8 3 -5 6 6 6 11 1 17 -2 13 -5z m193
-60 c0 -2 -14 -4 -31 -4 -16 0 -28 4 -25 9 5 8 56 3 56 -5z"/>
<path d="M5938 6953 c12 -2 30 -2 40 0 9 3 -1 5 -23 4 -22 0 -30 -2 -17 -4z"/>
<path d="M8443 6843 c-13 -2 -23 -9 -23 -14 0 -6 -5 -7 -12 -3 -8 5 -9 2 -5
-10 4 -10 10 -29 13 -42 5 -18 13 -24 33 -24 15 0 31 3 35 8 4 4 15 7 24 8 46
3 53 5 48 12 -3 6 130 14 135 8 0 -1 3 -22 5 -48 6 -55 -7 -68 -97 -94 -48
-14 -216 -100 -474 -241 -50 -28 -158 -85 -240 -128 -83 -42 -155 -82 -162
-87 -7 -5 -17 -7 -23 -3 -5 3 -10 0 -10 -7 0 -8 -4 -7 -11 4 -5 10 -16 15 -24
12 -19 -8 -19 10 0 26 8 7 15 22 16 34 1 19 2 18 9 -4 l8 -25 7 31 c4 17 18
44 31 59 24 28 24 28 4 42 -10 7 -22 29 -26 48 -7 39 -20 43 -65 19 l-30 -15
7 -69 c6 -60 3 -75 -19 -122 -32 -71 -76 -100 -144 -96 -50 3 -51 4 -38 58 5
19 -3 38 -34 79 -23 30 -41 64 -41 75 0 14 11 2 31 -34 16 -30 40 -65 52 -78
21 -21 24 -21 46 -6 13 9 29 31 37 49 27 65 -22 162 -93 186 -39 13 -47 9
-155 -78 l-67 -54 -123 15 c-197 25 -442 44 -758 61 -162 9 -333 20 -380 25
-123 14 -120 14 -120 -19 0 -20 9 -37 29 -54 34 -28 215 -88 521 -172 387
-107 589 -173 631 -207 22 -17 39 -38 39 -45 0 -24 -30 -73 -44 -73 -17 0 -28
77 -15 102 10 18 8 18 -30 -2 -46 -23 -46 -25 -26 -60 19 -33 19 -65 0 -80
-20 -16 -27 -9 -34 37 -7 41 -25 51 -54 29 -17 -13 -17 -16 -1 -49 19 -40 13
-67 -15 -67 -21 0 -31 18 -31 56 0 22 -3 24 -22 19 -41 -13 -128 -66 -123 -76
4 -5 1 -9 -5 -9 -7 0 -9 -7 -6 -16 3 -8 2 -13 -3 -10 -10 6 -24 -101 -16 -115
4 -5 2 -9 -2 -9 -5 0 -17 -24 -27 -52 -11 -29 -32 -73 -48 -98 -34 -52 -30
-58 56 -86 63 -21 111 -48 215 -123 l81 -59 53 21 c28 12 54 22 56 24 2 1 -12
24 -32 50 -19 26 -51 81 -71 121 l-37 73 113 52 c159 72 452 221 504 257 l44
29 118 -88 c174 -130 365 -292 544 -458 90 -85 127 -105 153 -83 21 18 19 28
-20 121 -19 46 -35 89 -35 96 0 8 12 18 28 25 134 54 172 89 172 156 0 45 -52
101 -102 109 -31 4 -51 -2 -118 -36 -44 -22 -84 -41 -89 -41 -4 0 -13 23 -19
51 -15 62 -9 72 58 94 82 27 120 75 120 151 0 25 -9 44 -33 71 -43 46 -85 48
-184 4 -39 -17 -76 -31 -82 -31 -7 0 -11 31 -11 88 l0 87 148 84 c318 182 464
295 530 411 55 96 39 162 -53 209 -38 20 -127 27 -192 14z m-215 -1016 c16
-19 16 -19 -6 -6 -26 16 -72 102 -72 133 1 12 14 -7 31 -44 16 -35 37 -73 47
-83z m-1025 68 l29 -12 -74 -44 c-68 -41 -111 -63 -80 -41 8 5 13 13 13 18 0
5 5 9 12 9 15 1 56 24 42 25 -6 0 -15 -4 -21 -10 -5 -5 -14 -6 -21 -2 -8 5 -7
17 4 44 16 41 26 42 96 13z m-318 -125 c3 -6 -1 -7 -9 -4 -18 7 -21 14 -7 14
6 0 13 -4 16 -10z m30 -20 c-3 -5 -12 -10 -18 -10 -7 0 -6 4 3 10 19 12 23 12
15 0z m65 -14 c0 -3 -4 -8 -10 -11 -5 -3 -10 -1 -10 4 0 6 5 11 10 11 6 0 10
-2 10 -4z m-40 -26 c0 -5 -7 -7 -15 -4 -8 4 -15 8 -15 10 0 2 7 4 15 4 8 0 15
-4 15 -10z m-309 -87 c-12 -20 -14 -14 -5 12 4 9 9 14 11 11 3 -2 0 -13 -6
-23z m1748 -107 l26 -29 -26 17 c-26 17 -69 84 -69 107 1 8 10 -4 22 -26 11
-22 32 -53 47 -69z m-1631 62 c-13 -9 -25 -14 -28 -11 -3 3 1 8 9 11 10 3 11
6 1 12 -8 5 -3 7 13 7 l27 -2 -22 -17z m-141 -10 c-3 -8 -6 -5 -6 6 -1 11 2
17 5 13 3 -3 4 -12 1 -19z m98 -7 c3 -5 1 -12 -4 -15 -5 -3 -11 1 -15 9 -6 16
9 21 19 6z m-25 -26 c0 -2 -7 -1 -17 2 -12 5 -14 3 -8 -8 5 -8 4 -11 0 -6 -5
4 -10 14 -11 22 -2 12 2 12 17 5 10 -6 19 -13 19 -15z"/>
<path d="M8280 6800 c-8 -5 -10 -10 -5 -10 6 0 17 5 25 10 8 5 11 10 5 10 -5
0 -17 -5 -25 -10z"/>
<path d="M6840 6785 c-41 -7 -115 -25 -164 -39 -48 -14 -94 -26 -102 -26 -19
0 -19 -1 20 -78 18 -37 39 -84 45 -104 l13 -38 86 0 c87 0 339 -24 378 -35 15
-5 31 5 67 42 26 26 47 53 47 59 0 10 -69 111 -117 172 -12 16 -34 25 -71 31
-29 4 -58 13 -65 20 -13 13 -40 13 -137 -4z"/>
<path d="M8180 6750 c-9 -6 -10 -10 -3 -10 6 0 15 5 18 10 8 12 4 12 -15 0z"/>
<path d="M8125 6719 l-27 -22 25 -21 c14 -12 27 -35 29 -51 4 -28 2 -31 -27
-30 -24 0 -33 6 -45 32 -18 38 -40 42 -80 13 -16 -11 -45 -27 -65 -36 -20 -8
-35 -18 -33 -23 27 -67 55 -121 62 -121 4 0 6 6 3 13 -3 8 3 14 14 14 13 1 17
-2 12 -10 -4 -7 0 -6 10 2 9 7 15 16 13 20 -3 4 5 8 17 8 20 2 20 1 5 -8 -10
-6 -18 -15 -18 -22 1 -7 14 4 31 23 19 22 27 27 23 15 -5 -15 -1 -13 15 8 12
15 29 27 38 27 10 0 13 6 9 16 -3 8 -2 12 4 9 16 -10 60 45 60 74 0 14 -7 35
-15 45 -8 10 -12 23 -9 27 3 5 -3 6 -12 2 -12 -4 -15 -3 -10 5 11 18 2 15 -29
-9z m-92 -137 c15 -26 17 -35 7 -47 -7 -8 -18 -15 -25 -15 -15 0 -35 43 -35
76 0 36 29 28 53 -14z"/>
<path d="M4620 6710 c8 -5 49 -11 90 -12 l75 -1 -65 -7 c-51 -5 -33 -7 85 -9
83 -1 159 -6 170 -11 13 -5 1 -7 -35 -5 -45 3 -49 3 -20 -4 19 -5 28 -9 20
-10 -8 -2 -24 -5 -35 -8 -11 -3 -39 -5 -62 -5 -24 0 -41 -3 -38 -7 2 -4 -17
-4 -43 0 -65 11 -94 11 -88 0 7 -11 -13 -9 -33 3 -11 7 -22 1 -40 -22 -15 -16
-40 -34 -56 -38 -17 -4 -32 -11 -35 -15 -3 -4 -12 -9 -20 -11 -8 -2 -21 -11
-29 -22 -9 -12 -16 -14 -21 -7 -4 7 -12 -5 -19 -28 -6 -22 -17 -44 -24 -48 -6
-4 -86 -10 -177 -13 -162 -5 -167 -6 -231 -37 -91 -45 -160 -120 -211 -231
-22 -48 -52 -99 -66 -114 -27 -30 -63 -36 -80 -15 -12 14 -20 137 -9 137 4 0
5 12 1 28 -4 21 -3 24 5 12 9 -13 11 -12 11 6 0 12 13 46 29 76 18 34 26 59
20 65 -5 5 -5 21 0 41 5 17 6 31 3 30 -4 -1 -14 2 -22 5 -8 3 -28 7 -45 9 -39
4 -43 27 -10 67 15 17 23 31 18 31 -8 -1 -24 -20 -58 -73 -15 -24 -16 -27 -1
-21 10 4 16 1 17 -7 0 -8 2 -22 4 -32 2 -9 -1 -15 -6 -11 -5 3 -10 -5 -10 -18
-1 -17 -3 -18 -6 -5 -2 9 -9 15 -14 12 -15 -10 -10 7 9 28 16 19 16 19 -5 7
-12 -8 -31 -34 -42 -59 -45 -98 -51 -154 -54 -447 -2 -249 0 -286 17 -344 32
-108 70 -182 124 -242 65 -70 130 -113 223 -145 l71 -24 1062 -3 c867 -2 1071
0 1116 11 116 29 242 110 290 187 24 41 73 180 100 291 12 45 23 135 27 206 6
118 5 127 -13 137 -10 5 -93 30 -184 55 -381 107 -560 180 -615 253 -36 47
-44 117 -20 164 24 47 74 89 114 96 18 4 115 -1 215 -9 100 -9 228 -18 285
-21 l104 -4 -39 34 c-50 43 -167 104 -266 138 l-77 26 -698 0 c-449 0 -693 -4
-683 -10z m273 -17 c-18 -2 -48 -2 -65 0 -18 2 -4 4 32 4 36 0 50 -2 33 -4z
m-299 -548 c9 -14 40 -80 69 -146 29 -67 56 -122 60 -123 4 0 25 37 46 84 71
162 93 200 117 200 11 0 29 -8 38 -19 16 -18 15 -22 -14 -87 -18 -38 -43 -91
-57 -119 -14 -27 -36 -77 -49 -109 -30 -74 -49 -96 -85 -96 -32 0 -49 21 -73
85 -8 22 -41 97 -75 167 -34 70 -61 131 -61 137 0 10 48 51 60 51 4 0 15 -11
24 -25z m757 -35 c22 -22 42 -52 45 -65 13 -54 -14 -116 -62 -143 -16 -9 -15
-12 4 -44 12 -19 30 -43 42 -53 25 -23 26 -47 0 -70 -24 -21 -26 -20 -120 77
-42 45 -73 68 -88 68 -20 0 -22 -4 -22 -64 0 -74 -17 -103 -50 -86 -39 21 -43
46 -36 229 5 120 10 178 19 183 7 4 61 8 121 8 l109 0 38 -40z"/>
<path d="M5150 6009 l0 -61 66 4 c50 3 70 9 80 23 20 27 17 42 -11 70 -20 21
-34 25 -80 25 l-55 0 0 -61z"/>
<path d="M4708 6663 c17 -2 47 -2 65 0 17 2 3 4 -33 4 -36 0 -50 -2 -32 -4z"/>
<path d="M4845 6660 c-18 -8 -17 -9 8 -9 16 -1 26 3 22 9 -3 6 -7 10 -8 9 -1
0 -11 -4 -22 -9z"/>
<path d="M7829 6541 c-21 -17 -22 -22 -11 -38 30 -44 43 -84 31 -99 -19 -23
-7 -24 20 -3 13 10 19 19 15 19 -5 0 4 7 20 15 32 17 49 20 26 5 -9 -6 -10
-10 -3 -10 18 0 26 19 10 26 -8 3 -24 27 -37 55 -26 54 -36 58 -71 30z"/>
<path d="M7743 6483 c-28 -19 -28 -27 -2 -64 12 -17 19 -38 16 -48 -5 -22 12
-46 35 -47 10 -1 14 4 11 13 -4 10 0 14 13 11 27 -4 22 41 -10 89 -14 21 -26
43 -26 50 0 17 -10 16 -37 -4z"/>
<path d="M3720 6470 c-8 -5 -12 -12 -9 -15 4 -3 12 1 19 10 14 17 11 19 -10 5z"/>
<path d="M3770 6470 c-8 -6 -11 -10 -6 -10 5 0 3 -7 -4 -15 -7 -8 -20 -14 -29
-13 -9 2 -16 -4 -16 -13 0 -9 -6 -24 -14 -33 -8 -9 -11 -20 -7 -24 4 -4 12 2
18 12 6 10 26 36 46 58 35 38 40 55 12 38z"/>
<path d="M7690 6216 c0 -2 7 -7 16 -10 8 -3 12 -2 9 4 -6 10 -25 14 -25 6z"/>
<path d="M3177 6153 c-4 -3 -7 -124 -7 -268 0 -190 3 -264 12 -273 7 -7 40
-12 79 -12 l66 0 -1 280 -1 280 -71 0 c-39 0 -74 -3 -77 -7z"/>
<path d="M7450 5630 c-34 -30 -341 -190 -363 -190 -7 0 -22 -8 -34 -18 l-22
-17 44 -75 c25 -41 45 -79 45 -85 0 -7 85 -10 255 -11 l256 0 -2 158 c-1 157
-2 159 -26 176 -14 9 -44 34 -68 55 -23 20 -44 37 -46 37 -2 -1 -20 -14 -39
-30z"/>
<path d="M3160 5425 c0 -19 2 -35 4 -35 2 0 6 16 8 35 2 19 0 35 -4 35 -4 0
-8 -16 -8 -35z"/>
<path d="M3275 5450 c-3 -5 -1 -10 4 -10 6 0 11 5 11 10 0 6 -2 10 -4 10 -3 0
-8 -4 -11 -10z"/>
<path d="M7787 5188 c-4 -181 -11 -267 -31 -388 -120 -740 -488 -1357 -1092
-1837 -373 -295 -864 -491 -1389 -552 -116 -14 -440 -14 -581 0 -343 33 -665
128 -991 293 -180 90 -407 245 -536 363 -31 29 -54 42 -65 39 -42 -13 -113
-25 -184 -31 -76 -7 -77 -8 -63 -28 22 -31 161 -144 288 -234 374 -265 730
-431 1112 -517 266 -60 373 -70 735 -70 298 0 350 2 469 22 449 74 839 223
1190 455 246 163 396 289 579 487 151 163 244 286 340 446 276 462 430 986
434 1477 l1 131 -44 36 c-24 19 -69 59 -101 88 -32 28 -60 52 -62 52 -2 0 -6
-105 -9 -232z"/>
<path d="M3464 5235 c3 -27 18 -90 32 -140 77 -264 227 -396 484 -424 81 -8
360 -6 426 5 19 3 71 35 130 81 149 115 280 163 438 163 171 -1 281 -42 435
-164 79 -63 102 -75 150 -84 82 -15 481 1 546 21 126 40 269 164 333 290 47
92 92 277 66 277 -3 0 -25 -19 -50 -42 -66 -62 -122 -99 -210 -140 -154 -72
-139 -71 -799 -67 -324 2 -801 2 -1060 1 -518 -4 -516 -4 -651 58 -97 45 -175
100 -234 167 l-43 48 7 -50z"/>
<path d="M6651 5101 c-10 -10 -26 -40 -36 -67 -69 -191 -166 -319 -308 -409
-141 -89 -245 -109 -547 -103 -261 5 -303 15 -399 93 -70 57 -199 122 -270
135 -123 23 -263 3 -358 -50 -29 -17 -87 -55 -129 -85 -129 -93 -153 -99 -411
-103 -200 -3 -230 -2 -305 17 -111 28 -274 109 -324 161 -21 22 -43 40 -49 40
-5 0 -1 -7 10 -16 11 -8 20 -20 20 -26 0 -6 9 -16 20 -22 30 -17 45 -33 37
-40 -3 -4 1 -4 9 -1 9 3 22 -2 30 -11 13 -16 12 -17 -6 -11 -19 7 -19 6 -2 -7
12 -9 14 -16 7 -21 -12 -7 -4 -25 11 -25 6 0 8 4 5 9 -3 5 1 12 9 15 17 6 33
-20 20 -32 -7 -8 -13 -9 -51 -11 -14 0 -23 -5 -19 -10 5 -9 -33 -7 -88 4 -9 2
-15 -1 -12 -6 3 -4 -32 -9 -77 -11 l-83 -3 3 -32 c2 -25 -1 -33 -12 -33 -21 0
-20 -29 1 -52 10 -11 12 -18 4 -18 -6 0 -11 -6 -10 -12 4 -30 -2 -58 -12 -58
-5 0 -7 5 -3 11 4 7 -1 9 -12 7 -11 -2 -18 -10 -17 -16 4 -15 -13 -16 -22 -2
-3 6 -2 10 4 10 6 0 -1 22 -15 50 -13 27 -26 68 -29 91 -2 23 -7 44 -11 48
-13 12 7 -95 39 -207 l32 -113 639 0 640 0 40 34 c23 19 103 93 179 165 76 71
149 135 162 142 27 14 22 18 310 -243 113 -102 133 -117 155 -111 20 5 703 13
1151 14 92 0 97 1 102 23 3 12 17 67 31 122 42 162 75 366 91 552 8 96 17 179
21 184 7 11 -92 59 -123 59 -13 0 -31 -8 -42 -19z m-3251 -839 c0 -4 -15 -13
-32 -21 -18 -8 -36 -19 -40 -25 -5 -8 -8 -7 -8 1 0 6 12 21 26 32 27 21 54 28
54 13z m20 -33 c0 -5 5 -7 10 -4 6 3 10 1 10 -5 0 -7 -10 -9 -27 -6 -16 3 -35
2 -43 -4 -11 -7 -5 -10 25 -11 38 -2 38 -2 7 -6 -18 -3 -40 1 -48 8 -12 10
-11 14 8 24 29 16 58 18 58 4z m93 -26 c-7 -2 -19 -2 -25 0 -7 3 -2 5 12 5 14
0 19 -2 13 -5z"/>
<path d="M2330 5080 c0 -5 7 -10 16 -10 8 0 12 5 9 10 -3 6 -10 10 -16 10 -5
0 -9 -4 -9 -10z"/>
<path d="M3139 5046 c3 -31 5 -36 11 -21 4 11 5 26 3 33 -3 6 0 12 6 12 7 0
14 -7 17 -15 4 -8 10 -15 15 -15 4 0 6 7 3 15 -5 12 4 15 42 16 63 1 47 6 -36
12 l-65 4 4 -41z"/>
<path d="M7002 5080 c-18 -4 -35 -10 -38 -13 -3 -3 -10 -54 -15 -114 -27 -299
-80 -624 -124 -763 -6 -20 -3 -20 294 -20 l299 0 40 103 c67 172 131 440 152
637 6 58 13 122 15 143 l5 37 -297 -1 c-164 -1 -313 -5 -331 -9z"/>
<path d="M2578 5073 c7 -3 16 -2 19 1 4 3 -2 6 -13 5 -11 0 -14 -3 -6 -6z"/>
<path d="M2763 5073 c31 -2 83 -2 115 0 31 2 5 3 -58 3 -63 0 -89 -1 -57 -3z"/>
<path d="M3290 5071 c0 -15 20 -24 20 -9 1 7 17 -18 36 -57 19 -38 32 -63 30
-55 -3 8 -13 41 -23 72 -15 48 -22 58 -40 58 -13 0 -23 -4 -23 -9z"/>
<path d="M2343 5020 c0 -25 2 -35 4 -22 2 12 2 32 0 45 -2 12 -4 2 -4 -23z"/>
<path d="M3380 4901 c0 -5 7 -14 15 -21 10 -9 15 -9 15 -1 0 6 -5 11 -11 11
-5 0 -7 5 -4 10 3 6 1 10 -4 10 -6 0 -11 -4 -11 -9z"/>
<path d="M3172 4730 c0 -19 2 -27 5 -17 2 9 2 25 0 35 -3 9 -5 1 -5 -18z"/>
<path d="M3011 4664 c0 -11 3 -14 6 -6 3 7 2 16 -1 19 -3 4 -6 -2 -5 -13z"/>
<path d="M3022 4585 c0 -16 2 -22 5 -12 2 9 2 23 0 30 -3 6 -5 -1 -5 -18z"/>
<path d="M3671 4554 c0 -11 3 -14 6 -6 3 7 2 16 -1 19 -3 4 -6 -2 -5 -13z"/>
<path d="M3030 4500 c0 -8 5 -22 10 -30 9 -13 10 -13 10 0 0 8 -5 22 -10 30
-9 13 -10 13 -10 0z"/>
<path d="M3040 4443 c0 -5 5 -15 10 -23 8 -12 10 -11 10 8 0 12 -4 22 -10 22
-5 0 -10 -3 -10 -7z"/>
<path d="M3260 4400 c0 -11 4 -20 9 -20 5 0 7 9 4 20 -3 11 -7 20 -9 20 -2 0
-4 -9 -4 -20z"/>
<path d="M3056 4383 c-6 -14 -5 -15 5 -6 7 7 10 15 7 18 -3 3 -9 -2 -12 -12z"/>
<path d="M3066 4353 c-6 -14 -5 -15 5 -6 7 7 10 15 7 18 -3 3 -9 -2 -12 -12z"/>
<path d="M3076 4317 c3 -10 9 -15 12 -12 3 3 0 11 -7 18 -10 9 -11 8 -5 -6z"/>
<path d="M4980 4323 c-1 -56 -26 -202 -50 -283 -19 -68 -26 -109 -20 -119 5
-9 32 -32 62 -51 29 -20 54 -42 56 -51 2 -9 -18 -30 -50 -52 -29 -20 -102 -73
-163 -117 -60 -45 -184 -131 -275 -191 -91 -61 -172 -117 -181 -125 -48 -43
-29 4 131 311 46 88 99 182 117 209 39 57 41 70 11 60 -28 -8 -67 -35 -133
-89 -27 -23 -95 -76 -151 -118 l-101 -76 -75 8 c-41 5 -86 16 -100 25 -25 16
-27 16 -115 -51 -87 -65 -208 -166 -434 -358 -58 -49 -118 -100 -135 -111
l-29 -22 30 -32 c62 -65 359 -243 515 -308 256 -107 450 -164 686 -203 536
-87 1116 7 1627 262 95 48 219 124 308 190 71 53 79 62 67 76 -7 9 -74 68
-148 132 -74 63 -171 150 -215 192 -44 42 -118 109 -165 149 -47 40 -88 77
-92 83 -4 6 -56 -15 -133 -52 -69 -35 -127 -61 -128 -60 -2 2 -10 20 -18 39
-26 55 -222 276 -463 518 -121 122 -224 222 -228 222 -5 0 -8 -3 -8 -7z m-980
-764 c0 -12 10 -41 21 -65 23 -46 20 -74 -8 -74 -26 -1 -94 -33 -200 -96 -52
-31 -96 -55 -98 -53 -14 16 245 309 273 309 7 0 12 -10 12 -21z m1151 -72
c114 -97 159 -155 159 -203 0 -9 -31 9 -82 49 -77 60 -146 103 -153 95 -3 -4
-35 -187 -42 -243 l-5 -40 51 -19 c29 -10 50 -23 48 -30 -5 -17 -144 -111
-309 -209 -81 -49 -150 -93 -153 -98 -4 -5 -10 -9 -15 -9 -5 0 33 83 85 185
51 102 92 185 89 185 -20 0 -200 -108 -462 -277 -106 -69 -196 -123 -199 -119
-9 8 93 106 272 261 82 72 186 162 230 200 225 197 392 335 405 335 4 0 40
-28 81 -63z"/>
<path d="M3091 4280 c0 -8 4 -22 9 -30 12 -18 12 -2 0 25 -6 13 -9 15 -9 5z"/>
<path d="M3080 4179 c-34 -6 -33 -6 13 -8 46 -1 59 3 35 11 -7 2 -29 1 -48 -3z"/>
<path d="M2718 4173 c45 -2 119 -2 165 0 45 1 8 3 -83 3 -91 0 -128 -2 -82 -3z"/>
<path d="M3753 4023 c-216 -2 -393 -6 -393 -10 0 -19 127 -262 180 -343 97
-148 78 -143 184 -47 50 45 128 118 174 161 l83 80 47 -24 c62 -30 163 -70
178 -70 7 0 16 10 20 22 3 12 52 68 107 125 l100 103 -54 0 c-30 1 -94 2 -144
3 -49 2 -267 2 -482 0z"/>
<path d="M5533 4010 c6 -8 41 -46 77 -85 37 -38 85 -96 109 -127 l42 -57 62
34 c34 18 84 40 110 49 l49 16 111 -99 c62 -55 137 -125 167 -155 30 -31 57
-56 61 -56 11 0 69 84 128 184 47 80 161 299 161 310 0 3 -245 4 -544 3 -482
-2 -543 -4 -533 -17z"/>
<path d="M6768 4019 c-5 -3 -25 -44 -44 -90 -40 -98 -144 -289 -223 -409 -31
-47 -56 -87 -56 -91 0 -3 47 -46 105 -96 58 -49 114 -100 124 -112 11 -11 25
-21 32 -21 22 0 295 292 385 413 82 109 186 273 239 376 l21 43 -286 -4 c-158
-2 -291 -6 -297 -9z"/>
<path d="M2619 3998 c17 -44 58 -108 64 -101 7 6 11 -12 8 -30 -1 -5 4 -5 10
-1 9 5 10 2 6 -9 -3 -9 -1 -19 6 -23 7 -4 9 -4 5 1 -10 11 10 45 26 45 8 0 13
-14 13 -42 0 -24 -2 -33 -4 -20 -2 12 -9 22 -14 22 -6 0 -8 -4 -5 -9 4 -5 2
-11 -3 -13 -26 -9 202 -313 361 -481 l83 -88 56 19 c79 28 134 58 208 113 35
27 68 49 72 49 19 0 7 25 -49 103 -108 151 -218 348 -251 450 l-13 37 -278 0
c-213 0 -280 -3 -283 -12 -4 -10 -6 -10 -6 0 -1 6 -5 12 -11 12 -6 0 -6 -9 -1
-22z m75 -22 c-3 -7 3 -17 13 -20 10 -4 19 -2 21 3 7 22 33 11 30 -11 -2 -15
-9 -22 -21 -22 -16 2 -22 -13 -17 -46 1 -10 -3 -9 -14 5 -8 11 -16 30 -16 43
0 13 -4 21 -9 18 -5 -3 -14 1 -21 9 -11 13 -10 14 2 10 9 -4 18 1 21 9 4 9 9
16 11 16 3 0 3 -6 0 -14z"/>
<path d="M2702 3930 c0 -14 2 -19 5 -12 2 6 2 18 0 25 -3 6 -5 1 -5 -13z"/>
<path d="M8028 3772 c-27 -16 -58 -66 -58 -92 0 -8 13 -11 40 -8 22 2 41 0 43
-5 3 -11 117 14 117 26 0 18 -31 67 -52 81 -29 20 -56 20 -90 -2z"/>
<path d="M5215 1850 c19 -8 463 -14 454 -6 -2 2 -110 6 -239 9 -142 4 -227 3
-215 -3z"/>
<path d="M4492 1843 c48 -2 129 -2 180 0 51 1 12 3 -87 3 -99 0 -141 -2 -93
-3z"/>
<path d="M5975 1798 c17 -6 47 -24 68 -40 28 -22 42 -27 50 -19 17 17 -18 47
-68 60 -55 14 -91 13 -50 -1z"/>
<path d="M3833 1763 c-14 -5 -18 -23 -5 -23 5 0 17 7 28 15 14 11 15 14 4 14
-8 0 -21 -3 -27 -6z"/>
</g>
</svg>
